<svg width="90" height="90" viewBox="0 0 90 90" fill="none" xmlns="http://www.w3.org/2000/svg">
<g filter="url(#filter0_b_1131_1888)">
<rect width="90" height="90" rx="45" fill="white" fill-opacity="0.8"/>
<path d="M64.9295 47.7724L49.7591 73.7717C49.2597 74.5673 48.567 75.2249 47.7447 75.6846C46.9224 76.1436 45.9971 76.3899 45.0539 76.3999C44.1554 76.3876 43.2756 76.1424 42.5013 75.6893C41.7271 75.2355 41.0853 74.5885 40.6391 73.813L25.2317 47.354C23.2483 43.8721 22.1993 39.9413 22.1858 35.9396C22.1858 29.9037 24.597 24.1151 28.8889 19.8471C33.1809 15.5791 39.002 13.1814 45.0717 13.1814C51.1415 13.1814 56.9626 15.5791 61.2545 19.8471C65.5464 24.1151 67.9576 29.9037 67.9576 35.9396C68.0352 40.0827 66.9892 44.1702 64.9295 47.7724Z" stroke="#141414" stroke-width="1.74866" stroke-miterlimit="10"/>
<circle cx="45" cy="36" r="13" stroke="black" stroke-width="2"/>
<path d="M45.9999 29C45.9999 28.4477 45.5522 28 44.9999 28C44.4476 28 43.9999 28.4477 43.9999 29H45.9999ZM43.9999 44C43.9999 44.5523 44.4476 45 44.9999 45C45.5522 45 45.9999 44.5523 45.9999 44H43.9999ZM43.9999 29V44H45.9999V29H43.9999Z" fill="black"/>
<path d="M52.5 37.5C53.0523 37.5 53.5 37.0523 53.5 36.5C53.5 35.9477 53.0523 35.5 52.5 35.5L52.5 37.5ZM37.5 35.5C36.9477 35.5 36.5 35.9477 36.5 36.5C36.5 37.0523 36.9477 37.5 37.5 37.5L37.5 35.5ZM52.5 35.5L37.5 35.5L37.5 37.5L52.5 37.5L52.5 35.5Z" fill="black"/>
</g>
<defs>
<filter id="filter0_b_1131_1888" x="-20" y="-20" width="130" height="130" filterUnits="userSpaceOnUse" color-interpolation-filters="sRGB">
<feFlood flood-opacity="0" result="BackgroundImageFix"/>
<feGaussianBlur in="BackgroundImage" stdDeviation="10"/>
<feComposite in2="SourceAlpha" operator="in" result="effect1_backgroundBlur_1131_1888"/>
<feBlend mode="normal" in="SourceGraphic" in2="effect1_backgroundBlur_1131_1888" result="shape"/>
</filter>
</defs>
</svg>
