<svg width="140" height="140" viewBox="0 0 140 140" fill="none" xmlns="http://www.w3.org/2000/svg">
<g filter="url(#filter0_b_988_6676)">
<rect width="140" height="140" rx="70" fill="white" fill-opacity="0.8"/>
<g clip-path="url(#clip0_988_6676)">
<path d="M93.7159 51.6217H46.864V47.9838C46.864 47.4867 47.0614 47.0101 47.4129 46.6586C47.7643 46.3071 48.241 46.1097 48.738 46.1097H91.8418C92.3388 46.1097 92.8155 46.3071 93.167 46.6586C93.5184 47.0101 93.7159 47.4867 93.7159 47.9838V51.6217Z" stroke="#141414" stroke-width="2.56723" stroke-linejoin="round"/>
<path d="M82.6793 98.4729H57.8754C57.1207 98.4723 56.3937 98.189 55.8376 97.6788C55.2816 97.1687 54.9368 96.4687 54.8713 95.7169L50.9716 51.621H89.5556L85.6696 95.7169C85.6013 96.4652 85.2576 97.1614 84.7051 97.6707C84.1526 98.1799 83.4307 98.4658 82.6793 98.4729Z" stroke="#141414" stroke-width="2.56723" stroke-linejoin="round"/>
<path d="M88.2045 46.1078H52.3766L53.2585 42.5939C53.3998 42.0243 53.7274 41.5183 54.1893 41.1563C54.6513 40.7943 55.2209 40.597 55.8077 40.5958H84.7457C85.3332 40.5946 85.9041 40.791 86.3664 41.1534C86.8289 41.5158 87.1559 42.0232 87.2951 42.5939L88.2045 46.1078Z" stroke="#141414" stroke-width="2.56723" stroke-linejoin="round"/>
<path d="M52.3766 62.6449H88.2045" stroke="#141414" stroke-width="2.56723" stroke-linejoin="round"/>
<path d="M53.755 83.3156H86.827" stroke="#141414" stroke-width="2.56723" stroke-linejoin="round"/>
</g>
</g>
<defs>
<filter id="filter0_b_988_6676" x="-31.1111" y="-31.1111" width="202.222" height="202.222" filterUnits="userSpaceOnUse" color-interpolation-filters="sRGB">
<feFlood flood-opacity="0" result="BackgroundImageFix"/>
<feGaussianBlur in="BackgroundImage" stdDeviation="15.5556"/>
<feComposite in2="SourceAlpha" operator="in" result="effect1_backgroundBlur_988_6676"/>
<feBlend mode="normal" in="SourceGraphic" in2="effect1_backgroundBlur_988_6676" result="shape"/>
</filter>
<clipPath id="clip0_988_6676">
<rect width="49.4192" height="60.9717" fill="white" transform="translate(45.5808 39.314)"/>
</clipPath>
</defs>
</svg>
