<?xml version="1.0" encoding="utf-8"?>
<!-- Generator: Adobe Illustrator 25.1.0, SVG Export Plug-In . SVG Version: 6.00 Build 0)  -->
<svg version="1.1" id="Layer_1" xmlns="http://www.w3.org/2000/svg" xmlns:xlink="http://www.w3.org/1999/xlink" x="0px" y="0px"
	 viewBox="0 0 177.1 44" style="enable-background:new 0 0 177.1 44;" xml:space="preserve">
<style type="text/css">
	.st0{fill:#0070AD;}
	.st1{fill:#FF4019;}
	.st2{fill:#12ABDB;}
	.st3{fill:#FF4019;stroke:#FF4019;stroke-width:2;stroke-miterlimit:10;}
</style>
<desc>Created with sketchtool.</desc>
<path id="Shape" class="st0" d="M69.6,2.9L72,2.5V8h6.5v1.6c0,1-0.8,1.9-1.9,1.9H72v7.4c0,1.5,0.2,2.5,0.7,3.1
	c0.5,0.6,1.2,0.9,2.4,0.9c0.8,0,1.4-0.1,2-0.2c0.6-0.2,1.1-0.3,1.4-0.5l0.4,2.1c0.2,0.8-0.2,1.4-1.1,1.8c-0.5,0.2-1.7,0.5-3.3,0.5
	c-1.3,0-2.4-0.2-3.2-0.5c-0.9-0.4-1.6-0.9-2.1-1.5c-0.5-0.7-0.9-1.5-1.1-2.4c-0.2-0.9-0.3-2-0.3-3.2V5C67.8,4,68.6,3.1,69.6,2.9z"/>
<path id="Shape_1_" class="st1" d="M84.9,2.7c0,0.8-0.2,1.4-0.8,1.9C83.6,5,83,5.2,82.3,5.2c-0.7,0-1.3-0.2-1.8-0.7
	c-0.5-0.5-0.8-1.1-0.8-1.9c0-0.8,0.2-1.5,0.8-1.9s1.1-0.7,1.8-0.7c0.7,0,1.3,0.2,1.8,0.7C84.7,1.2,84.9,1.8,84.9,2.7z"/>
<path id="Shape_2_" class="st0" d="M84.4,26.1h-1.2c-1.7,0-3-1.3-3-3V8h1.4c1.5,0,2.8,1.2,2.8,2.8V26.1z"/>
<path id="Shape_3_" class="st0" d="M49.7,17.2c0-1.6,0.2-3,0.7-4.2c0.5-1.2,1.1-2.2,1.9-3S54,8.6,55,8.2c1-0.4,2.1-0.6,3.1-0.6
	c2.5,0,4.4,0.8,5.8,2.3c1.4,1.6,2.1,3.9,2.1,6.9c0,0.2,0,0.5,0,0.8s0,0.5,0,0.8H54c0.1,1.5,0.6,2.6,1.5,3.4c0.9,0.8,2.2,1.2,4,1.2
	c1,0,2-0.1,2.8-0.3c0.2,0,0.4-0.1,0.6-0.1c0.8-0.2,1.5,0.3,1.6,1.1l0.3,1.9c-0.2,0.1-0.5,0.2-1,0.4c-0.4,0.1-0.9,0.2-1.4,0.4
	c-0.5,0.1-1.1,0.2-1.7,0.2c-0.6,0.1-1.2,0.1-1.8,0.1c-1.6,0-3-0.2-4.2-0.7c-1.2-0.5-2.1-1.1-2.9-2c-0.8-0.9-1.3-1.8-1.7-3
	C49.9,19.8,49.7,18.5,49.7,17.2z M61.8,15.3c0-0.6-0.1-1.1-0.2-1.6c-0.2-0.5-0.4-1-0.7-1.3c-0.3-0.4-0.7-0.7-1.1-0.9
	c-0.5-0.2-1-0.3-1.6-0.3c-0.6,0-1.2,0.1-1.7,0.4c-0.5,0.2-0.9,0.6-1.2,1s-0.6,0.9-0.8,1.3s-0.3,1-0.4,1.6L61.8,15.3z"/>
<path id="Shape_4_" class="st0" d="M31.7,17c0,1.4-0.2,2.7-0.6,3.9c-0.4,1.2-1,2.2-1.7,3c-0.7,0.8-1.6,1.5-2.7,2
	c-1,0.5-2.2,0.7-3.4,0.7c-1.3,0-2.4-0.2-3.4-0.7c-1-0.5-1.9-1.1-2.7-2c-0.7-0.8-1.3-1.8-1.7-3s-0.6-2.5-0.6-3.9
	c0-1.4,0.2-2.7,0.6-3.9s1-2.2,1.7-3c0.7-0.8,1.6-1.5,2.7-1.9c1-0.5,2.2-0.7,3.4-0.7c1.2,0,2.4,0.2,3.4,0.7c1,0.5,1.9,1.1,2.7,1.9
	c0.7,0.8,1.3,1.8,1.7,3C31.5,14.3,31.7,15.6,31.7,17z M27.5,17c0-1.8-0.4-3.2-1.1-4.3c-0.7-1.1-1.8-1.6-3.1-1.6
	c-1.4,0-2.4,0.5-3.1,1.6C19.4,13.8,19,15.2,19,17c0,1.8,0.4,3.3,1.1,4.3c0.7,1.1,1.8,1.6,3.1,1.6c1.4,0,2.4-0.5,3.1-1.6
	C27.1,20.3,27.5,18.8,27.5,17z"/>
<path id="Shape_5_" class="st0" d="M13.6,19.2c-0.2-0.6-0.5-1.1-1-1.5c-0.5-0.5-1-0.9-1.7-1.2c-0.7-0.4-1.5-0.7-2.5-1.1
	c-0.6-0.2-1.1-0.4-1.5-0.6s-0.7-0.4-1-0.6c-0.2-0.2-0.4-0.4-0.5-0.6c-0.1-0.2-0.2-0.5-0.2-0.8c0-0.6,0.3-1,0.8-1.3S7.1,11,7.9,11
	c0.7,0,1.3,0,1.9,0.1l0.4,0.1c1.2,0.1,2.4-0.6,2.6-1.8L13,8.4c-0.8-0.3-1.6-0.5-2.2-0.6C10.1,7.7,9,7.6,7.8,7.6C5.6,7.6,4,8,2.7,9
	s-1.8,2.3-1.8,3.9c0,0.9,0.1,1.6,0.4,2.2c0.3,0.6,0.6,1.1,1.1,1.5c0.5,0.4,1,0.8,1.6,1.1c0.6,0.3,1.3,0.6,2.1,0.9
	c1.2,0.5,2.1,0.9,2.7,1.3c0.5,0.4,0.8,0.9,0.8,1.5c0,0.6-0.2,1.1-0.8,1.4c-0.5,0.3-1.3,0.4-2.4,0.4c-1.2,0-2.1-0.1-2.6-0.3
	c-0.5-0.1-0.7-0.2-1.1-0.2c-1.1,0-2.1,0.7-2.4,1.8l-0.2,0.9c0.5,0.2,1.7,0.6,2.5,0.8c0.9,0.2,2,0.4,3.9,0.4c2.4,0,4.2-0.4,5.5-1.3
	s1.9-2.2,1.9-3.9C13.9,20.5,13.8,19.8,13.6,19.2z"/>
<g id="Group" transform="translate(26.393643, 30.923847)">
	<path id="Shape_6_" class="st2" d="M139.8,7.8c1.3,0,2.3-1,2.3-2.3C142,5,141.8,4,140.4,4c-1.5,0-2,2.1-3.3,3.5
		c-0.1,0.8-0.9,1.5-1.8,1.6c0.2,0.2,0.7,0.4,1.3,0.4c1.1,0,2.4-0.3,3.1-1c-0.9,0-1.5-0.6-1.6-1.4C138.7,7.6,139.2,7.8,139.8,7.8z"/>
	<g id="Shape_7_">
		<path class="st0" d="M130,4.4c0-0.7,0-1.1-0.5-1.1c-0.2,0-0.3,0-0.5,0.1c0.2,2.3-0.4,4.3-1,4.3c-0.8,0-0.4-4.9-2.2-4.9
			c-1.6,0-1.8,3.9-2,3.9c-0.1,0-0.1-1-0.1-1.8c0.1-0.4,0.1-0.7,0.1-1c0-0.4-0.1-1-1-0.7c0,2.8-0.5,4.5-1.2,4.5
			c-0.9,0-0.9-2.6-0.9-3.2s0-1.6-1-1.3c-0.1,2.4-0.8,4.3-1.2,4.3c-0.6,0-0.5-4.2-1.8-4.2c-1.2,0-1.5,4-1.8,4c-0.4,0,0.1-4.5-1.6-4.5
			c-0.9,0-1.2,1.5-1.6,3.2c-0.1,0.3-0.1,0.3-0.1,0c0-0.3,0-0.6,0-0.9c0.4-1.7-0.1-2.3-0.9-1.9c0.2,3.1-1.2,4.6-2.3,4.6
			c-0.4,0-0.7-0.2-0.9-0.4c1.3-0.8,1.9-1.7,1.9-2.6c0-1-0.6-1.6-1.5-1.6c-1.3,0-2,1.3-2,2.5c0,0.6,0.1,1.1,0.3,1.6
			c-0.5,0.2-0.9,0.4-1.3,0.6c0-1.2-0.2-2.4-0.3-3.5c-0.7-0.2-0.9,0.1-1,0.8c-0.1,1.4-0.6,2.3-1.1,2.3c-0.4,0-0.6-0.4-0.6-0.9
			c-0.1-2.3,1.7-2.9,2.7-2.6c0.2-0.5,0-0.9-0.9-0.9c-1.1,0-1.8,0.6-2.4,1.5C101,5,100.6,5.4,100,5.9c0-0.1,0-0.3,0-0.4
			c0-1.6-0.9-2.3-1.7-2.3c-0.7,0-1.1,0.4-1.4,1c-0.1-0.6-0.2-0.9-0.6-0.9c-0.2,0-0.4,0-0.6,0.2c0.1,0.4,0.1,1.1,0.1,1.6
			c0,1.9-0.6,2.8-1.1,2.8c-0.6,0-0.7-2.3-0.7-3.2c-0.1,0-0.2-0.1-0.3-0.1c-0.5,0-0.6,0.7-0.7,1.4c-0.1,0.7-0.6,1.7-1.2,1.7
			c-0.4,0-0.6-0.4-0.7-1c-0.1-1.4,1.1-3,2.8-2.5c0.2-0.5-0.1-1-0.9-1c-1.3,0-2.4,1-2.8,2.1C89.8,6.5,89,8,87.3,8
			c-1.2,0-2.1-1-2.1-3.2c0-1.9,1.2-3.7,2.5-3.7c0.9,0,1.1,0.9,1,1.7c0.5,0.4,1.2,0,1.2-0.9c0-0.6-0.5-1.7-2.2-1.7
			c-2.1,0-3.9,2.1-3.9,4.7c0,2.6,1.3,4.2,3.2,4.2c1.2,0,2.3-0.7,3.1-1.9c0.2,1.1,0.9,1.6,1.5,1.6c0.9,0,1.5-0.6,1.8-1.4
			c0.2,0.8,0.6,1.4,1.3,1.4c0.5,0,0.9-0.2,1.2-0.6c-0.1,2.7-0.3,4.5,1.4,4.2c-0.2-0.8-0.3-2.2-0.3-3.5c0-3.5,0.6-4.6,1.3-4.6
			c0.5,0,0.7,0.7,0.7,1.4c0,0.4,0,0.8-0.1,1.2c-0.9,0.6-1.6,1-1.6,1.6c0,0.4,0.3,0.5,0.6,0.5c0.7,0,1.5-0.7,2-1.9
			c0.4-0.2,0.8-0.5,1.2-0.9c0,0.1,0,0.2,0,0.4c0,1.2,0.5,2,1.4,2c0.7,0,1.2-0.5,1.6-1.2c0,0.4,0,0.8,0,1.2c-1.4,0.6-2.9,1.3-2.9,3.1
			c0,0.9,0.7,1.6,1.6,1.6c1.9,0,2.4-2.1,2.4-4.4c0.6-0.3,1.1-0.5,1.6-0.7c0.5,0.6,1.1,0.9,1.7,0.9c1.1,0,1.9-0.6,2.6-1.8
			c0.1,0.9,0.4,1.8,0.8,1.8c0.9,0,1-4.5,1.7-4.5c0.5,0,0.1,4.9,1.4,4.9c1.1,0,1.3-4.3,1.9-4.3c0.4,0,0.4,3.9,1.6,3.9
			c0.6,0,1.2-0.7,1.6-2.2c0.1,1,0.7,2.2,1.6,2.2c0.6,0,1.1-0.6,1.5-1.3c0.1,0.8,0.3,1.3,0.8,1.3c1.1,0,1.1-4.5,2-4.5
			c0.7,0,0.5,4.5,2.2,4.5c0.8,0,1.2-0.7,1.4-1.5c0.3,1.2,0.8,1.5,1.2,1.5c0.2,0,0.5-0.1,0.7-0.4C129.9,7.7,130,5.7,130,4.4z
			 M102.6,12.1c-0.4,0-0.6-0.4-0.6-0.8c0-1.2,0.9-1.8,1.9-2.3C103.9,11.6,103.3,12.1,102.6,12.1z M107.9,3.9c0.4,0,0.6,0.4,0.6,0.9
			c0,0.6-0.5,1.3-1.2,1.8C106.8,5.5,107.1,3.9,107.9,3.9z"/>
		<path class="st0" d="M120.2,2.2c0.4,0,0.6-0.3,0.6-0.7c0-0.4-0.2-0.7-0.6-0.7c-0.4,0-0.7,0.3-0.7,0.7S119.9,2.2,120.2,2.2z"/>
		<path class="st0" d="M129.5,2.4c0.3,0,0.6-0.3,0.6-0.7c0-0.4-0.3-0.6-0.6-0.6c-0.3,0-0.6,0.3-0.6,0.7S129.2,2.4,129.5,2.4z"/>
		<path class="st0" d="M142.1,5.4c0-1.4-0.7-2.6-1.8-3.6c-0.8-0.7-1.7-1.3-2.7-1.7c-0.1,0-0.2-0.1-0.2-0.1l0,0
			c-1.2,1.5-5.5,2.6-5.5,5.6c0,1.2,0.8,2.3,1.9,2.8c0.6,0.2,1.3,0.2,1.9,0c0.6-0.2,1-0.5,1.4-1c1.2-1.4,1.7-3.5,3.3-3.5
			c1.4,0,1.6,1,1.7,1.5C142.1,5.5,142.1,5.5,142.1,5.4z"/>
	</g>
</g>
<path id="Shape_8_" class="st0" d="M93.8,35c0.5,0,1,0.1,1.2,0.3c0.3,0.2,0.4,0.5,0.4,0.9c0,0.2,0,0.4-0.1,0.6
	c-0.1,0.1-0.2,0.3-0.3,0.4c-0.1,0.1-0.3,0.2-0.5,0.2s-0.5,0.1-0.7,0.1h-0.3v1.3h-0.7v-3.6c0.1,0,0.3-0.1,0.5-0.1S93.6,35,93.8,35z
	 M93.8,35.6c-0.2,0-0.3,0-0.4,0v1.2h0.3c0.3,0,0.6,0,0.7-0.1c0.2-0.1,0.3-0.3,0.3-0.5c0-0.1,0-0.2-0.1-0.3s-0.1-0.1-0.2-0.2
	c-0.1,0-0.2-0.1-0.3-0.1C94.1,35.6,94,35.6,93.8,35.6z"/>
<path id="Shape_9_" class="st0" d="M96.7,35.9c0.2,0,0.4,0,0.5,0.1c0.1,0.1,0.3,0.1,0.4,0.2s0.1,0.2,0.2,0.4c0,0.1,0.1,0.3,0.1,0.5
	v1.7c-0.1,0-0.2,0-0.5,0.1c-0.2,0-0.4,0-0.7,0c-0.2,0-0.3,0-0.5,0c-0.1,0-0.2-0.1-0.4-0.1s-0.2-0.2-0.2-0.3s-0.1-0.2-0.1-0.4
	s0-0.3,0.1-0.4s0.1-0.2,0.2-0.3c0.1-0.1,0.2-0.1,0.4-0.1c0.1,0,0.3,0,0.4,0c0.1,0,0.1,0,0.2,0c0.1,0,0.2,0,0.2,0v-0.1
	c0-0.1,0-0.1,0-0.2s0-0.1-0.1-0.2c-0.1-0.1-0.1-0.1-0.2-0.1c-0.1,0-0.2,0-0.3,0c-0.1,0-0.3,0-0.4,0c-0.1,0-0.2,0-0.3,0.1l-0.1-0.5
	c0.1,0,0.2-0.1,0.4-0.1C96.3,35.9,96.5,35.9,96.7,35.9z M96.7,38.3c0.2,0,0.4,0,0.5,0v-0.7c0,0-0.1,0-0.1,0c-0.1,0-0.1,0-0.2,0
	c-0.1,0-0.1,0-0.2,0c-0.1,0-0.1,0-0.2,0.1c-0.1,0-0.1,0.1-0.1,0.1c0,0-0.1,0.1-0.1,0.2c0,0.1,0,0.2,0.1,0.3
	C96.4,38.3,96.6,38.3,96.7,38.3z"/>
<path id="Shape_10_" class="st0" d="M99.8,36.6c-0.1,0-0.1,0-0.2-0.1c-0.1,0-0.2,0-0.3,0c-0.1,0-0.1,0-0.2,0c-0.1,0-0.1,0-0.2,0v2.2
	h-0.6v-2.7c0.1,0,0.3-0.1,0.5-0.1c0.2,0,0.4-0.1,0.6-0.1c0,0,0.1,0,0.1,0s0.1,0,0.2,0s0.1,0,0.2,0c0.1,0,0.1,0,0.1,0L99.8,36.6z"/>
<path id="Shape_11_" class="st0" d="M100.2,35.2l0.6-0.1V36h1v0.5h-1v1.1c0,0.2,0,0.4,0.1,0.5s0.2,0.1,0.4,0.1c0.1,0,0.2,0,0.3,0
	c0.1,0,0.2,0,0.2-0.1l0.1,0.5c-0.1,0-0.2,0.1-0.3,0.1s-0.3,0-0.4,0c-0.2,0-0.4,0-0.5-0.1s-0.2-0.1-0.3-0.2c-0.1-0.1-0.1-0.2-0.2-0.4
	s0-0.3,0-0.5V35.2z"/>
<path id="Shape_12_" class="st0" d="M106,37.4c0,0.2,0,0.4-0.1,0.6c-0.1,0.2-0.1,0.3-0.3,0.5c-0.1,0.1-0.2,0.2-0.4,0.3
	s-0.4,0.1-0.5,0.1s-0.4,0-0.5-0.1s-0.3-0.2-0.4-0.3c-0.1-0.1-0.2-0.3-0.3-0.5c-0.1-0.2-0.1-0.4-0.1-0.6s0-0.4,0.1-0.6
	c0.1-0.2,0.2-0.3,0.3-0.5c0.1-0.1,0.3-0.2,0.4-0.3c0.2-0.1,0.3-0.1,0.5-0.1c0.2,0,0.4,0,0.5,0.1c0.2,0.1,0.3,0.2,0.4,0.3
	c0.1,0.1,0.2,0.3,0.3,0.5C105.9,36.9,106,37.2,106,37.4z M105.3,37.4c0-0.3-0.1-0.5-0.2-0.7c-0.1-0.2-0.3-0.2-0.5-0.2
	s-0.4,0.1-0.5,0.2c-0.1,0.2-0.2,0.4-0.2,0.7c0,0.3,0.1,0.5,0.2,0.7s0.3,0.2,0.5,0.2s0.4-0.1,0.5-0.2S105.3,37.6,105.3,37.4z"/>
<path id="Shape_13_" class="st0" d="M107.4,34.6c0.1,0,0.3,0,0.4,0c0.1,0,0.2,0,0.2,0.1l-0.1,0.5c-0.1,0-0.1,0-0.2-0.1
	c-0.1,0-0.2,0-0.2,0c-0.1,0-0.2,0-0.3,0c-0.1,0-0.1,0.1-0.2,0.1s-0.1,0.1-0.1,0.2c0,0.1,0,0.2,0,0.2V36h1v0.5h-1v2.2h-0.7v-3
	c0-0.4,0.1-0.6,0.3-0.9C106.8,34.7,107.1,34.6,107.4,34.6z"/>
<path id="Shape_14_" class="st0" d="M45.3,7.9c-1.2-0.2-2.4-0.3-3.7-0.3c-1.4,0-2.6,0.2-3.6,0.7c-1.1,0.4-2,1.1-2.7,1.8
	s-1.3,1.7-1.7,2.8c-0.4,1.1-0.6,2.3-0.6,3.7c0,1.4,0.2,2.7,0.6,3.7c0.4,1.1,0.9,2,1.5,2.7s1.5,1.3,2.4,1.6c0.9,0.4,1.9,0.6,3.1,0.6
	c0.9,0,1.6-0.1,2.2-0.3c0.6-0.2,1-0.4,1.4-0.5c0,1.8-0.7,3.2-3.1,3.8c-1,0.2-2.2,0.2-4-0.3c-0.5,0.9-0.7,2.4,0,3.3
	c0.6,0.8,2.2,0.9,3.2,0.9c2.2,0,4.7-1,5.8-2c1.5-1.4,2.2-3.5,2.2-6.4v-15C47.5,8.3,46.4,8.1,45.3,7.9z M44.1,20.8
	c-0.4,0.2-0.8,0.5-1.4,0.7c-0.6,0.2-1.1,0.3-1.8,0.3c-1.1,0-2.1-0.4-2.8-1.2c-0.7-0.8-1.1-2.1-1.1-3.9c0-1.6,0.4-3,1.1-4
	s1.8-1.5,3.3-1.5c0.6,0,1.1,0,1.6,0.1c0.4,0.1,0.8,0.1,1,0.2L44.1,20.8L44.1,20.8z"/>
<g>
	<path class="st0" d="M91.4,12.3h-3.9l0.7-3.4h12.1l-0.7,3.4h-3.9L93.9,22h-4.4L91.4,12.3z"/>
	<path class="st0" d="M111.9,16.2c-0.6,0.9-1.5,1.5-2.6,1.9l2.2,3.8h-4.6l-1.9-3.3H104l-0.7,3.3h-4.4l2.6-13.2h5.9
		c1.7,0,3.1,0.4,4,1.1c1,0.8,1.4,1.8,1.4,3.2C112.9,14.3,112.6,15.4,111.9,16.2z M106.7,12.3h-1.5l-0.6,3.1h1.8
		c0.6,0,1.1-0.2,1.4-0.5c0.3-0.3,0.5-0.7,0.5-1.3C108.4,12.7,107.8,12.3,106.7,12.3z"/>
	<path class="st0" d="M116.4,21.7c-0.9-0.4-1.5-1-2-1.7s-0.7-1.6-0.7-2.6c0-0.4,0-0.9,0.2-1.4l1.4-7.2h4.4l-1.4,7.2
		c-0.1,0.4-0.1,0.7-0.1,1c0,0.6,0.2,1,0.5,1.3c0.3,0.3,0.7,0.4,1.3,0.4c0.7,0,1.2-0.2,1.5-0.6c0.4-0.4,0.6-1.1,0.8-2.1l1.4-7.2h4.4
		l-1.5,7.4c-0.4,2-1.2,3.5-2.4,4.5c-1.2,1-2.8,1.5-4.8,1.5C118.3,22.3,117.3,22.1,116.4,21.7z"/>
	<path class="st0" d="M131.5,21.6c-1-0.5-1.8-1.2-2.4-2.1c-0.6-0.9-0.8-1.9-0.8-3.1c0-1.5,0.4-2.9,1.1-4.1c0.7-1.2,1.7-2.1,2.9-2.8
		s2.7-1,4.3-1c1.3,0,2.4,0.2,3.4,0.7s1.7,1.1,2.2,1.9l-3.2,2.5c-0.6-1-1.5-1.5-2.6-1.5c-0.7,0-1.3,0.2-1.8,0.5
		c-0.5,0.3-1,0.8-1.3,1.4s-0.5,1.3-0.5,2.1c0,0.8,0.2,1.4,0.7,1.9s1.1,0.7,2,0.7c1.1,0,2.1-0.5,2.9-1.5l2.6,2.5
		c-0.8,0.9-1.6,1.6-2.6,2s-2.1,0.6-3.4,0.6C133.7,22.3,132.6,22.1,131.5,21.6z"/>
	<path class="st0" d="M151.1,14.8l4.3,7.2h-4.9l-2.7-4.3l-1.2,1.1l-0.6,3.1h-4.4l2.6-13.2h4.4l-0.9,4.7l5-4.7h5.1L151.1,14.8z"/>
	<path class="st0" d="M157.7,21.9c-1-0.2-1.8-0.6-2.5-1l1.7-3.3c1.4,0.8,2.9,1.2,4.4,1.2c0.6,0,1-0.1,1.3-0.2
		c0.3-0.1,0.5-0.3,0.5-0.6c0-0.2-0.2-0.4-0.5-0.5c-0.3-0.1-0.8-0.3-1.5-0.5c-0.9-0.2-1.6-0.5-2.2-0.7c-0.6-0.2-1.1-0.6-1.5-1.1
		c-0.4-0.5-0.6-1.1-0.6-1.9c0-1,0.3-1.9,0.8-2.6c0.5-0.7,1.3-1.3,2.3-1.7c1-0.4,2.2-0.6,3.6-0.6c1,0,1.9,0.1,2.7,0.3
		s1.6,0.5,2.2,0.8l-1.6,3.2c-0.5-0.3-1.1-0.6-1.7-0.7c-0.6-0.2-1.3-0.2-1.9-0.2c-0.6,0-1.1,0.1-1.4,0.3c-0.3,0.2-0.5,0.4-0.5,0.6
		c0,0.2,0.2,0.4,0.5,0.6c0.3,0.1,0.8,0.3,1.5,0.5c0.9,0.2,1.6,0.4,2.2,0.6c0.6,0.2,1.1,0.6,1.5,1.1c0.4,0.5,0.6,1.1,0.6,1.9
		c0,1-0.3,1.8-0.8,2.6c-0.5,0.7-1.3,1.3-2.3,1.7c-1,0.4-2.2,0.6-3.5,0.6C159.7,22.3,158.7,22.2,157.7,21.9z"/>
</g>
<line class="st3" x1="87.5" y1="26.4" x2="168.4" y2="26.4"/>
</svg>
