<svg width="70" height="96" viewBox="0 0 70 96" fill="none" xmlns="http://www.w3.org/2000/svg">
<g clip-path="url(#clip0_1068_1912)">
<path d="M64.8923 52.9499L43.1738 90.3803C42.4589 91.5257 41.4671 92.4724 40.2898 93.1342C39.1126 93.7951 37.7879 94.1497 36.4377 94.1641C35.1513 94.1463 33.8917 93.7934 32.7833 93.141C31.6749 92.4877 30.756 91.5562 30.1172 90.4397L8.05942 52.3476C5.21987 47.3348 3.71816 41.6757 3.69876 35.9145C3.69876 27.2248 7.15071 18.8911 13.2952 12.7466C19.4397 6.60209 27.7734 3.15015 36.4631 3.15015C45.1528 3.15015 53.4865 6.60209 59.631 12.7466C65.7755 18.8911 69.2275 27.2248 69.2275 35.9145C69.3385 41.8793 67.841 47.7639 64.8923 52.9499Z" fill="#C4001A"/>
<g filter="url(#filter0_b_1068_1912)">
<rect x="12.2358" y="11.6858" width="48.2492" height="48.2492" rx="24.1246" fill="white" fill-opacity="0.9"/>
<g clip-path="url(#clip1_1068_1912)">
<path d="M36.0919 49.5953C43.7223 49.5953 49.908 43.4096 49.908 35.7792C49.908 28.1487 43.7223 21.963 36.0919 21.963C28.4614 21.963 22.2757 28.1487 22.2757 35.7792C22.2757 43.4096 28.4614 49.5953 36.0919 49.5953Z" stroke="#141414" stroke-width="1.0731" stroke-linecap="round"/>
<path d="M35.2231 39.0038L34.9468 27.8851H37.2231L36.9731 39.0038H35.2231ZM34.9731 43.675V40.7144H37.1968V43.675H34.9731Z" fill="#141414"/>
</g>
</g>
</g>
<defs>
<filter id="filter0_b_1068_1912" x="1.51371" y="0.963739" width="69.6933" height="69.6934" filterUnits="userSpaceOnUse" color-interpolation-filters="sRGB">
<feFlood flood-opacity="0" result="BackgroundImageFix"/>
<feGaussianBlur in="BackgroundImage" stdDeviation="5.36103"/>
<feComposite in2="SourceAlpha" operator="in" result="effect1_backgroundBlur_1068_1912"/>
<feBlend mode="normal" in="SourceGraphic" in2="effect1_backgroundBlur_1068_1912" result="shape"/>
</filter>
<clipPath id="clip0_1068_1912">
<rect width="68.7186" height="95.0183" fill="white" transform="translate(0.774567 0.957031)"/>
</clipPath>
<clipPath id="clip1_1068_1912">
<rect width="28.7054" height="28.7054" fill="white" transform="translate(21.7394 21.4264)"/>
</clipPath>
</defs>
</svg>
