<svg width="90" height="125" viewBox="0 0 90 125" fill="none" xmlns="http://www.w3.org/2000/svg">
<path d="M84.0287 68.4452L54.32 119.646C53.3421 121.213 51.9855 122.508 50.3751 123.413C48.7648 124.317 46.9527 124.802 45.1057 124.822C43.3461 124.798 41.6231 124.315 40.1069 123.422C38.5907 122.529 37.3338 121.255 36.46 119.727L6.2872 67.6213C2.40298 60.7642 0.348795 53.0232 0.322266 45.1425C0.322266 33.2559 5.04418 21.8563 13.4492 13.4511C21.8543 5.04613 33.2539 0.324219 45.1405 0.324219C57.0271 0.324219 68.4268 5.04613 76.8319 13.4511C85.2369 21.8563 89.9588 33.2559 89.9588 45.1425C90.1107 53.3017 88.0623 61.3512 84.0287 68.4452Z" fill="#B8DED8"/>
<g filter="url(#filter0_b_970_4077)">
<rect x="12" y="12" width="66" height="66" rx="33" fill="white" fill-opacity="0.9"/>
<g clip-path="url(#clip0_970_4077)">
<path d="M25.7333 62.6953C26.5173 62.7077 27.2917 62.5218 27.9845 62.1548C28.6774 61.7878 29.2663 61.2517 29.6966 60.5963C30.1269 61.2517 30.7158 61.7878 31.4087 62.1548C32.1016 62.5218 32.8759 62.7077 33.6599 62.6953C34.4439 62.7077 35.2183 62.5218 35.9111 62.1548C36.604 61.7878 37.1929 61.2517 37.6232 60.5963C38.0616 61.2441 38.6521 61.7746 39.343 62.1414C40.034 62.5081 40.8043 62.7 41.5865 62.7C42.3688 62.7 43.1391 62.5081 43.83 62.1414C44.5209 61.7746 45.1114 61.2441 45.5498 60.5963C45.9882 61.2441 46.5787 61.7746 47.2696 62.1414C47.9606 62.5081 48.7309 62.7 49.5131 62.7C50.2954 62.7 51.0657 62.5081 51.7566 62.1414C52.4475 61.7746 53.038 61.2441 53.4764 60.5963C53.9148 61.2441 54.5053 61.7746 55.1962 62.1414C55.8872 62.5081 56.6575 62.7 57.4397 62.7C58.222 62.7 58.9923 62.5081 59.6832 62.1414C60.3742 61.7746 60.9646 61.2441 61.403 60.5963C61.8331 61.2517 62.4221 61.7878 63.115 62.1548C63.8082 62.5218 64.5825 62.7077 65.3663 62.6953" stroke="#141414" stroke-width="1.46789" stroke-linecap="round" stroke-linejoin="round"/>
<path d="M28.6687 58.2926L28.2284 48.0908C28.1791 47.8893 28.1731 47.6798 28.2108 47.4759C28.2484 47.272 28.3288 47.0784 28.4467 46.9078C28.5646 46.7372 28.7173 46.5935 28.8947 46.4862C29.0721 46.3789 29.2702 46.3104 29.4761 46.2853L45.5495 43.6137L61.6961 46.9752C61.8935 47.0081 62.0825 47.0812 62.2506 47.1897C62.4187 47.2983 62.5629 47.4401 62.6745 47.6064C62.7857 47.7728 62.862 47.9602 62.8983 48.1571C62.9343 48.354 62.9299 48.5562 62.8851 48.7513L62.4301 58.2926" stroke="#141414" stroke-width="1.46789" stroke-linecap="round" stroke-linejoin="round"/>
<path d="M45.5493 58.2926V43.6137" stroke="#141414" stroke-width="1.46789" stroke-linecap="round" stroke-linejoin="round"/>
<path d="M36.0239 45.0813V37.7419H31.5762V31.8703H59.5102V37.7419H55.0624V45.0813" stroke="#141414" stroke-width="1.46789" stroke-linecap="round" stroke-linejoin="round"/>
<path d="M34.5409 34.8062H38.9445" stroke="#141414" stroke-width="1.46789" stroke-linecap="round" stroke-linejoin="round"/>
<path d="M56.5589 34.8062H52.1552" stroke="#141414" stroke-width="1.46789" stroke-linecap="round" stroke-linejoin="round"/>
<path d="M47.752 34.8062H43.3484" stroke="#141414" stroke-width="1.46789" stroke-linecap="round" stroke-linejoin="round"/>
<path d="M38.9435 31.8711V26.7335" stroke="#141414" stroke-width="1.46789" stroke-linecap="round" stroke-linejoin="round"/>
<path d="M36.7426 31.8717V28.9359" stroke="#141414" stroke-width="1.46789" stroke-linecap="round" stroke-linejoin="round"/>
</g>
</g>
<defs>
<filter id="filter0_b_970_4077" x="-2.66667" y="-2.66667" width="95.3333" height="95.3333" filterUnits="userSpaceOnUse" color-interpolation-filters="sRGB">
<feFlood flood-opacity="0" result="BackgroundImageFix"/>
<feGaussianBlur in="BackgroundImage" stdDeviation="7.33333"/>
<feComposite in2="SourceAlpha" operator="in" result="effect1_backgroundBlur_970_4077"/>
<feBlend mode="normal" in="SourceGraphic" in2="effect1_backgroundBlur_970_4077" result="shape"/>
</filter>
<clipPath id="clip0_970_4077">
<rect width="41.1009" height="37.7982" fill="white" transform="translate(25 26)"/>
</clipPath>
</defs>
</svg>
