<svg width="70" height="96" viewBox="0 0 70 96" fill="none" xmlns="http://www.w3.org/2000/svg">
<path d="M63.5857 52.4559L41.8673 89.8863C41.1523 91.0316 40.1606 91.9784 38.9833 92.6402C37.8061 93.301 36.4814 93.6557 35.1312 93.6701C33.8448 93.6523 32.5852 93.2993 31.4768 92.6469C30.3684 91.9937 29.4495 91.0622 28.8107 89.9457L6.75292 51.8536C3.91337 46.8407 2.41165 41.1816 2.39226 35.4205C2.39226 26.7308 5.8442 18.3971 11.9887 12.2526C18.1332 6.10807 26.4669 2.65613 35.1566 2.65613C43.8463 2.65613 52.18 6.10807 58.3245 12.2526C64.469 18.3971 67.921 26.7308 67.921 35.4205C68.032 41.3852 66.5345 47.2698 63.5857 52.4559Z" fill="#B8DED8"/>
<g filter="url(#filter0_b_1068_1902)">
<rect x="10.9293" y="11.1917" width="48.2492" height="48.2492" rx="24.1246" fill="white" fill-opacity="0.9"/>
<g clip-path="url(#clip0_1068_1902)">
<path d="M20.9689 48.2524C21.5421 48.2615 22.1082 48.1255 22.6147 47.8573C23.1212 47.589 23.5518 47.1971 23.8663 46.7179C24.1809 47.1971 24.6114 47.589 25.1179 47.8573C25.6245 48.1255 26.1906 48.2615 26.7637 48.2524C27.3368 48.2615 27.9029 48.1255 28.4094 47.8573C28.916 47.589 29.3465 47.1971 29.6611 46.7179C29.9815 47.1915 30.4132 47.5794 30.9183 47.8475C31.4234 48.1156 31.9866 48.2558 32.5584 48.2558C33.1303 48.2558 33.6934 48.1156 34.1985 47.8475C34.7036 47.5794 35.1353 47.1915 35.4558 46.7179C35.7763 47.1915 36.208 47.5794 36.7131 47.8475C37.2182 48.1156 37.7813 48.2558 38.3532 48.2558C38.925 48.2558 39.4882 48.1156 39.9933 47.8475C40.4984 47.5794 40.93 47.1915 41.2505 46.7179C41.571 47.1915 42.0027 47.5794 42.5078 47.8475C43.0129 48.1156 43.576 48.2558 44.1479 48.2558C44.7198 48.2558 45.2829 48.1156 45.788 47.8475C46.2931 47.5794 46.7248 47.1915 47.0453 46.7179C47.3597 47.1971 47.7903 47.589 48.2968 47.8573C48.8035 48.1255 49.3696 48.2615 49.9426 48.2524" stroke="#141414" stroke-width="1.0731" stroke-linecap="round" stroke-linejoin="round"/>
<path d="M23.1149 45.0339L22.793 37.5758C22.757 37.4286 22.7526 37.2754 22.7802 37.1263C22.8077 36.9772 22.8664 36.8357 22.9526 36.711C23.0388 36.5863 23.1504 36.4812 23.2801 36.4028C23.4098 36.3244 23.5547 36.2743 23.7051 36.2559L35.4556 34.3029L47.2596 36.7603C47.4039 36.7843 47.5421 36.8377 47.6649 36.9171C47.7878 36.9964 47.8932 37.1001 47.9748 37.2217C48.0561 37.3434 48.1119 37.4804 48.1384 37.6243C48.1647 37.7682 48.1615 37.9161 48.1288 38.0587L47.7961 45.0339" stroke="#141414" stroke-width="1.0731" stroke-linecap="round" stroke-linejoin="round"/>
<path d="M35.4555 45.0339V34.3029" stroke="#141414" stroke-width="1.0731" stroke-linecap="round" stroke-linejoin="round"/>
<path d="M28.4919 35.3758V30.0103H25.2404V25.7179H45.6615V30.0103H42.41V35.3758" stroke="#141414" stroke-width="1.0731" stroke-linecap="round" stroke-linejoin="round"/>
<path d="M27.4077 27.8641H30.627" stroke="#141414" stroke-width="1.0731" stroke-linecap="round" stroke-linejoin="round"/>
<path d="M43.504 27.8641H40.2847" stroke="#141414" stroke-width="1.0731" stroke-linecap="round" stroke-linejoin="round"/>
<path d="M37.0658 27.8641H33.8465" stroke="#141414" stroke-width="1.0731" stroke-linecap="round" stroke-linejoin="round"/>
<path d="M30.6263 25.7185V21.9626" stroke="#141414" stroke-width="1.0731" stroke-linecap="round" stroke-linejoin="round"/>
<path d="M29.0173 25.7188V23.5726" stroke="#141414" stroke-width="1.0731" stroke-linecap="round" stroke-linejoin="round"/>
</g>
</g>
<defs>
<filter id="filter0_b_1068_1902" x="0.207209" y="0.469599" width="69.6933" height="69.6934" filterUnits="userSpaceOnUse" color-interpolation-filters="sRGB">
<feFlood flood-opacity="0" result="BackgroundImageFix"/>
<feGaussianBlur in="BackgroundImage" stdDeviation="5.36103"/>
<feComposite in2="SourceAlpha" operator="in" result="effect1_backgroundBlur_1068_1902"/>
<feBlend mode="normal" in="SourceGraphic" in2="effect1_backgroundBlur_1068_1902" result="shape"/>
</filter>
<clipPath id="clip0_1068_1902">
<rect width="30.0468" height="27.6323" fill="white" transform="translate(20.4329 21.4264)"/>
</clipPath>
</defs>
</svg>
