<svg width="69" height="96" viewBox="0 0 69 96" fill="none" xmlns="http://www.w3.org/2000/svg">
<path d="M63.051 52.4559L41.3326 89.8863C40.6176 91.0316 39.6259 91.9784 38.4486 92.6402C37.2714 93.301 35.9466 93.6557 34.5964 93.6701C33.31 93.6523 32.0505 93.2993 30.9421 92.6469C29.8337 91.9937 28.9148 91.0622 28.276 89.9457L6.21821 51.8536C3.37865 46.8407 1.87694 41.1816 1.85754 35.4205C1.85754 26.7308 5.30949 18.3971 11.454 12.2526C17.5985 6.10807 25.9322 2.65613 34.6219 2.65613C43.3116 2.65613 51.6453 6.10807 57.7898 12.2526C63.9343 18.3971 67.3862 26.7308 67.3862 35.4205C67.4973 41.3852 65.9998 47.2698 63.051 52.4559Z" fill="#50A294"/>
<g filter="url(#filter0_b_1068_1922)">
<rect x="10.3946" y="11.1917" width="48.2492" height="48.2492" rx="24.1246" fill="white" fill-opacity="0.9"/>
<g clip-path="url(#clip0_1068_1922)">
<path d="M35.1978 27.1541H33.5399V29.9436H35.1978V27.1541Z" fill="#141414"/>
<path d="M36.3555 41.2981H35.1844V31.9163H32.3949V33.5742H33.5659V41.2981H32.3949V42.956H36.3555V41.2981Z" fill="#141414"/>
<path d="M34.2499 48.8638C41.8804 48.8638 48.0661 42.6781 48.0661 35.0476C48.0661 27.4171 41.8804 21.2314 34.2499 21.2314C26.6195 21.2314 20.4338 27.4171 20.4338 35.0476C20.4338 42.6781 26.6195 48.8638 34.2499 48.8638Z" stroke="#141414" stroke-width="1.0731" stroke-linecap="round"/>
</g>
</g>
<defs>
<filter id="filter0_b_1068_1922" x="-0.32749" y="0.469599" width="69.6933" height="69.6934" filterUnits="userSpaceOnUse" color-interpolation-filters="sRGB">
<feFlood flood-opacity="0" result="BackgroundImageFix"/>
<feGaussianBlur in="BackgroundImage" stdDeviation="5.36103"/>
<feComposite in2="SourceAlpha" operator="in" result="effect1_backgroundBlur_1068_1922"/>
<feBlend mode="normal" in="SourceGraphic" in2="effect1_backgroundBlur_1068_1922" result="shape"/>
</filter>
<clipPath id="clip0_1068_1922">
<rect width="28.7054" height="28.7054" fill="white" transform="translate(19.8982 20.6953)"/>
</clipPath>
</defs>
</svg>
