<svg width="70" height="96" viewBox="0 0 70 96" fill="none" xmlns="http://www.w3.org/2000/svg">
<path d="M63.5463 52.4559L41.8278 89.8863C41.1129 91.0316 40.1212 91.9784 38.9439 92.6402C37.7667 93.301 36.4419 93.6557 35.0917 93.6701C33.8053 93.6523 32.5457 93.2993 31.4373 92.6469C30.3289 91.9937 29.4101 91.0622 28.7713 89.9457L6.71348 51.8536C3.87393 46.8407 2.37222 41.1816 2.35282 35.4205C2.35282 26.7308 5.80477 18.3971 11.9492 12.2526C18.0938 6.10807 26.4275 2.65613 35.1172 2.65613C43.8069 2.65613 52.1405 6.10807 58.2851 12.2526C64.4296 18.3971 67.8815 26.7308 67.8815 35.4205C67.9926 41.3852 66.4951 47.2698 63.5463 52.4559Z" fill="#F7D302"/>
<g filter="url(#filter0_b_1068_1907)">
<rect x="10.8898" y="11.1917" width="48.2492" height="48.2492" rx="24.1246" fill="white" fill-opacity="0.9"/>
<g clip-path="url(#clip0_1068_1907)">
<path d="M32.2559 21.9797L21.2915 42.5135C21.0418 42.9815 20.9175 43.5062 20.9308 44.0364C20.9441 44.5667 21.0945 45.0845 21.3673 45.5394C21.6402 45.9944 22.0261 46.3708 22.4877 46.6321C22.9492 46.8937 23.4706 47.0311 24.0011 47.0313H45.7743C46.3047 47.0311 46.8261 46.8937 47.2876 46.6321C47.7493 46.3708 48.1351 45.9944 48.4079 45.5394C48.6807 45.0845 48.8312 44.5667 48.8444 44.0364C48.8578 43.5062 48.7336 42.9815 48.4838 42.5135L37.5194 21.9824C37.2536 21.5203 36.8699 21.137 36.4076 20.8717C35.9452 20.6063 35.4208 20.4684 34.8877 20.472C34.354 20.4639 33.8281 20.5997 33.365 20.8649C32.9019 21.1302 32.5188 21.5153 32.2559 21.9797Z" stroke="#141414" stroke-width="1.0731" stroke-miterlimit="10"/>
<path d="M36.2426 42.575C36.2426 41.9761 35.9574 41.691 35.4441 41.691H34.332C33.7903 41.691 33.5051 41.9761 33.5051 42.575V43.3449C33.5051 43.9722 33.7903 44.2573 34.332 44.2573H35.4441C35.9574 44.2573 36.2426 43.9722 36.2426 43.3449V42.575ZM36.2996 25.0953V24.9813C36.2996 24.411 36.0144 24.1543 35.4726 24.1543H34.3035C33.7903 24.1543 33.4766 24.411 33.4766 24.9813V25.0953L33.7903 37.8415C33.8188 38.4688 34.0754 38.7825 34.6172 38.7825H35.216C35.7293 38.7825 35.9574 38.4688 35.9859 37.8415L36.2996 25.0953Z" fill="#141414"/>
</g>
</g>
<defs>
<filter id="filter0_b_1068_1907" x="0.167757" y="0.469599" width="69.6933" height="69.6934" filterUnits="userSpaceOnUse" color-interpolation-filters="sRGB">
<feFlood flood-opacity="0" result="BackgroundImageFix"/>
<feGaussianBlur in="BackgroundImage" stdDeviation="5.36103"/>
<feComposite in2="SourceAlpha" operator="in" result="effect1_backgroundBlur_1068_1907"/>
<feBlend mode="normal" in="SourceGraphic" in2="effect1_backgroundBlur_1068_1907" result="shape"/>
</filter>
<clipPath id="clip0_1068_1907">
<rect width="29.242" height="31.1199" fill="white" transform="translate(20.3934 18.5022)"/>
</clipPath>
</defs>
</svg>
