<svg width="90" height="125" viewBox="0 0 90 125" fill="none" xmlns="http://www.w3.org/2000/svg">
<path d="M84.0287 68.4452L54.32 119.646C53.3421 121.213 51.9855 122.508 50.3751 123.413C48.7648 124.317 46.9527 124.802 45.1057 124.822C43.3461 124.798 41.6231 124.315 40.1069 123.422C38.5907 122.529 37.3338 121.255 36.46 119.727L6.2872 67.6213C2.40298 60.7642 0.348795 53.0232 0.322266 45.1425C0.322266 33.2559 5.04418 21.8563 13.4492 13.4511C21.8543 5.04613 33.2539 0.324219 45.1405 0.324219C57.0271 0.324219 68.4268 5.04613 76.8319 13.4511C85.2369 21.8563 89.9588 33.2559 89.9588 45.1425C90.1107 53.3017 88.0623 61.3512 84.0287 68.4452Z" fill="#F7D302"/>
<g filter="url(#filter0_b_970_4082)">
<rect x="12" y="12" width="66" height="66" rx="33" fill="white" fill-opacity="0.9"/>
<path d="M41.2266 26.757L26.2284 54.845C25.8869 55.4852 25.7169 56.2029 25.7351 56.9283C25.7532 57.6536 25.959 58.362 26.3322 58.9842C26.7054 59.6066 27.2334 60.1215 27.8647 60.4789C28.4961 60.8367 29.2093 61.0246 29.9349 61.025H59.7183C60.4439 61.0246 61.1571 60.8367 61.7884 60.4789C62.42 60.1215 62.9477 59.6066 63.3209 58.9842C63.6941 58.362 63.9 57.6536 63.918 56.9283C63.9363 56.2029 63.7664 55.4852 63.4248 54.845L48.4266 26.7606C48.063 26.1285 47.5382 25.6042 46.9057 25.2413C46.2732 24.8783 45.5558 24.6896 44.8266 24.6946C44.0966 24.6835 43.3772 24.8692 42.7438 25.232C42.1103 25.5949 41.5863 26.1217 41.2266 26.757Z" stroke="#141414" stroke-width="1.46789" stroke-miterlimit="10"/>
<path d="M46.68 54.929C46.68 54.1099 46.2899 53.7199 45.5878 53.7199H44.0666C43.3255 53.7199 42.9354 54.1099 42.9354 54.929V55.9822C42.9354 56.8403 43.3255 57.2303 44.0666 57.2303H45.5878C46.2899 57.2303 46.68 56.8403 46.68 55.9822V54.929ZM46.758 31.0186V30.8626C46.758 30.0825 46.3679 29.7314 45.6268 29.7314H44.0276C43.3255 29.7314 42.8964 30.0825 42.8964 30.8626V31.0186L43.3255 48.4541C43.3645 49.3122 43.7155 49.7413 44.4566 49.7413H45.2758C45.9779 49.7413 46.2899 49.3122 46.3289 48.4541L46.758 31.0186Z" fill="#141414"/>
</g>
<defs>
<filter id="filter0_b_970_4082" x="-2.66667" y="-2.66667" width="95.3333" height="95.3333" filterUnits="userSpaceOnUse" color-interpolation-filters="sRGB">
<feFlood flood-opacity="0" result="BackgroundImageFix"/>
<feGaussianBlur in="BackgroundImage" stdDeviation="7.33333"/>
<feComposite in2="SourceAlpha" operator="in" result="effect1_backgroundBlur_970_4082"/>
<feBlend mode="normal" in="SourceGraphic" in2="effect1_backgroundBlur_970_4082" result="shape"/>
</filter>
</defs>
</svg>
