<svg width="67" height="92" viewBox="0 0 67 92" fill="none" xmlns="http://www.w3.org/2000/svg">
<path d="M61.8152 50.4735L40.0967 87.9039C39.3818 89.0492 38.39 89.996 37.2127 90.6577C36.0355 91.3186 34.7108 91.6732 33.3606 91.6877C32.0742 91.6698 30.8146 91.3169 29.7062 90.6645C28.5978 90.0113 27.6789 89.0798 27.0402 87.9633L4.98237 49.8711C2.14281 44.8583 0.641098 39.1992 0.621704 33.4381C0.621704 24.7484 4.07365 16.4147 10.2181 10.2701C16.3627 4.12565 24.6964 0.673706 33.3861 0.673706C42.0757 0.673706 50.4094 4.12565 56.554 10.2701C62.6984 16.4147 66.1504 24.7484 66.1504 33.4381C66.2615 39.4028 64.764 45.2874 61.8152 50.4735Z" fill="#104E9B"/>
<g filter="url(#filter0_b_1068_1872)">
<rect x="9.15869" y="9.20935" width="48.2492" height="48.2492" rx="24.1246" fill="white" fill-opacity="0.9"/>
<g clip-path="url(#clip0_1068_1872)">
<path d="M44.6877 47.4431C44.6877 43.0568 43.8835 38.6705 33.4295 38.6705C22.9755 38.6705 22.1714 43.1299 22.1714 47.4431" stroke="black" stroke-width="1.07311" stroke-linecap="round" stroke-linejoin="round"/>
<path d="M27.1426 31.7987C27.1426 33.4801 27.8005 35.0884 28.9702 36.2581C30.1399 37.4278 31.7482 38.0857 33.4296 38.0857C35.111 38.0857 36.7193 37.4278 37.889 36.2581C39.0587 35.0884 39.7166 33.4801 39.7166 31.7987" stroke="black" stroke-width="1.07311" stroke-miterlimit="10"/>
<path d="M26.5577 29.3862C26.5577 29.3862 23.7066 27.1199 24.0722 24.7806C25.1687 23.0992 28.9702 19.2246 33.3565 19.2246C37.7428 19.2246 41.6173 22.5874 42.6408 25.1461C42.2022 27.2661 40.3014 29.3862 40.3014 29.3862C40.3014 29.3862 41.6173 30.1903 41.1787 30.7752C40.7401 31.4331 37.6697 33.2607 33.0641 33.1145C28.9702 32.8221 25.6074 31.7255 25.3149 30.5559C25.6805 29.6786 26.5577 29.3862 26.5577 29.3862Z" stroke="black" stroke-width="1.07245" stroke-miterlimit="10" stroke-linejoin="round"/>
<path d="M33.3565 21.7102C33.3565 21.7102 32.8447 22.4413 31.7482 22.6606C31.7482 23.5378 32.4061 25.2923 33.3565 25.4386C34.3068 25.2192 35.0379 23.8302 35.0379 22.5875C34.0144 22.295 33.722 22.0757 33.3565 21.7102Z" stroke="black" stroke-width="1.07245" stroke-miterlimit="10" stroke-linejoin="round"/>
<path d="M26.5577 29.3863V27.9973C26.5577 27.9973 29.7744 27.1932 33.3565 27.1932C36.9386 27.1932 40.2284 28.2897 40.2284 28.2897V29.3863H26.5577Z" stroke="black" stroke-width="1.07245" stroke-miterlimit="10" stroke-linejoin="round"/>
</g>
</g>
<defs>
<filter id="filter0_b_1068_1872" x="-1.56336" y="-1.5127" width="69.6934" height="69.6933" filterUnits="userSpaceOnUse" color-interpolation-filters="sRGB">
<feFlood flood-opacity="0" result="BackgroundImageFix"/>
<feGaussianBlur in="BackgroundImage" stdDeviation="5.36103"/>
<feComposite in2="SourceAlpha" operator="in" result="effect1_backgroundBlur_1068_1872"/>
<feBlend mode="normal" in="SourceGraphic" in2="effect1_backgroundBlur_1068_1872" result="shape"/>
</filter>
<clipPath id="clip0_1068_1872">
<rect width="23.6129" height="29.242" fill="white" transform="translate(21.5865 18.7129)"/>
</clipPath>
</defs>
</svg>
