<svg width="70" height="96" viewBox="0 0 70 96" fill="none" xmlns="http://www.w3.org/2000/svg">
<path d="M63.7758 52.4735L42.0573 89.9039C41.3424 91.0492 40.3507 91.996 39.1734 92.6577C37.9962 93.3186 36.6714 93.6732 35.3212 93.6877C34.0348 93.6698 32.7752 93.3169 31.6668 92.6645C30.5584 92.0113 29.6396 91.0798 29.0008 89.9633L6.94299 51.8711C4.10343 46.8583 2.60172 41.1992 2.58233 35.4381C2.58233 26.7484 6.03427 18.4147 12.1788 12.2701C18.3233 6.12565 26.657 2.67371 35.3467 2.67371C44.0364 2.67371 52.3701 6.12565 58.5146 12.2701C64.6591 18.4147 68.111 26.7484 68.111 35.4381C68.2221 41.4028 66.7246 47.2874 63.7758 52.4735Z" fill="#F7D302"/>
<g filter="url(#filter0_b_1068_1866)">
<rect x="11.1193" y="11.2094" width="48.2492" height="48.2492" rx="24.1246" fill="white" fill-opacity="0.9"/>
<g clip-path="url(#clip0_1068_1866)">
<path d="M32.4854 21.9973L21.521 42.5311C21.2713 42.9991 21.147 43.5237 21.1603 44.054C21.1736 44.5843 21.324 45.1021 21.5968 45.557C21.8697 46.012 22.2556 46.3884 22.7172 46.6497C23.1787 46.9113 23.7001 47.0486 24.2306 47.0489H46.0038C46.5342 47.0486 47.0556 46.9113 47.5171 46.6497C47.9788 46.3884 48.3646 46.012 48.6374 45.557C48.9103 45.1021 49.0608 44.5843 49.0739 44.054C49.0873 43.5237 48.9631 42.9991 48.7133 42.5311L37.7489 22C37.4831 21.5379 37.0995 21.1546 36.6371 20.8893C36.1747 20.6239 35.6503 20.486 35.1172 20.4896C34.5835 20.4815 34.0576 20.6172 33.5945 20.8825C33.1314 21.1478 32.7483 21.5329 32.4854 21.9973Z" stroke="#141414" stroke-width="1.0731" stroke-miterlimit="10"/>
<path d="M36.4721 42.5925C36.4721 41.9937 36.1869 41.7086 35.6736 41.7086H34.5616C34.0198 41.7086 33.7346 41.9937 33.7346 42.5925V43.3624C33.7346 43.9898 34.0198 44.2749 34.5616 44.2749H35.6736C36.1869 44.2749 36.4721 43.9898 36.4721 43.3624V42.5925ZM36.5291 25.1129V24.9988C36.5291 24.4285 36.2439 24.1719 35.7022 24.1719H34.533C34.0198 24.1719 33.7061 24.4285 33.7061 24.9988V25.1129L34.0198 37.859C34.0483 38.4864 34.3049 38.8 34.8467 38.8H35.4455C35.9588 38.8 36.1869 38.4864 36.2154 37.859L36.5291 25.1129Z" fill="#141414"/>
</g>
</g>
<defs>
<filter id="filter0_b_1068_1866" x="0.39727" y="0.487299" width="69.6933" height="69.6934" filterUnits="userSpaceOnUse" color-interpolation-filters="sRGB">
<feFlood flood-opacity="0" result="BackgroundImageFix"/>
<feGaussianBlur in="BackgroundImage" stdDeviation="5.36103"/>
<feComposite in2="SourceAlpha" operator="in" result="effect1_backgroundBlur_1068_1866"/>
<feBlend mode="normal" in="SourceGraphic" in2="effect1_backgroundBlur_1068_1866" result="shape"/>
</filter>
<clipPath id="clip0_1068_1866">
<rect width="29.242" height="31.1199" fill="white" transform="translate(20.623 18.5198)"/>
</clipPath>
</defs>
</svg>
