<svg width="90" height="125" viewBox="0 0 90 125" fill="none" xmlns="http://www.w3.org/2000/svg">
<path d="M84.0287 68.4452L54.32 119.646C53.3421 121.213 51.9855 122.508 50.3751 123.413C48.7648 124.317 46.9527 124.802 45.1057 124.822C43.3461 124.798 41.6231 124.315 40.1069 123.422C38.5907 122.529 37.3338 121.255 36.46 119.727L6.2872 67.6213C2.40298 60.7642 0.348795 53.0232 0.322266 45.1425C0.322266 33.2559 5.04418 21.8563 13.4492 13.4511C21.8543 5.04613 33.2539 0.324219 45.1405 0.324219C57.0271 0.324219 68.4268 5.04613 76.8319 13.4511C85.2369 21.8563 89.9588 33.2559 89.9588 45.1425C90.1107 53.3017 88.0623 61.3512 84.0287 68.4452Z" fill="#FFA000"/>
<g filter="url(#filter0_b_970_4130)">
<rect x="12" y="12" width="66" height="66" rx="33" fill="white" fill-opacity="0.9"/>
<g clip-path="url(#clip0_970_4130)">
<path d="M60.5601 62.2359C60.5198 56.2359 59.4592 50.2249 45.1473 50.2249C30.8354 50.2249 29.7638 56.2872 29.7344 62.2359" stroke="#141414" stroke-width="1.46789" stroke-linecap="round" stroke-linejoin="round"/>
<path d="M36.5809 40.8157C36.5809 43.0873 37.4833 45.2659 39.0896 46.8722C40.6959 48.4784 42.8744 49.3808 45.1461 49.3808C47.4177 49.3808 49.5962 48.4784 51.2025 46.8722C52.8088 45.2659 53.7112 43.0873 53.7112 40.8157" stroke="#141414" stroke-width="1.46789" stroke-miterlimit="10"/>
<path d="M43.153 34.9443V27.9021C43.1539 27.5929 43.2772 27.2966 43.4958 27.078C43.7145 26.8593 44.0107 26.7361 44.3199 26.7351H45.9713C46.2805 26.7361 46.5768 26.8593 46.7954 27.078C47.0141 27.2966 47.1373 27.5929 47.1383 27.9021V34.9443" stroke="#141414" stroke-width="1.46789" stroke-miterlimit="10" stroke-linecap="round"/>
<path d="M43.1541 28.5327C39.1724 29.384 36.2036 32.7125 36.2036 36.6941C36.2121 36.8165 36.1877 36.9389 36.1328 37.0486C36.078 37.1583 35.9947 37.2514 35.8917 37.318C35.8917 37.318 34.3504 38.0996 34.3504 40.8005H55.8587C55.8587 38.0996 54.321 37.318 54.321 37.318C54.2172 37.2522 54.1333 37.1594 54.0783 37.0495C54.0233 36.9395 53.9994 36.8167 54.0091 36.6941C54.0091 32.7125 51.0366 29.384 47.0587 28.5327" stroke="#141414" stroke-width="1.46789" stroke-miterlimit="10"/>
</g>
</g>
<defs>
<filter id="filter0_b_970_4130" x="-2.66667" y="-2.66667" width="95.3333" height="95.3333" filterUnits="userSpaceOnUse" color-interpolation-filters="sRGB">
<feFlood flood-opacity="0" result="BackgroundImageFix"/>
<feGaussianBlur in="BackgroundImage" stdDeviation="7.33333"/>
<feComposite in2="SourceAlpha" operator="in" result="effect1_backgroundBlur_970_4130"/>
<feBlend mode="normal" in="SourceGraphic" in2="effect1_backgroundBlur_970_4130" result="shape"/>
</filter>
<clipPath id="clip0_970_4130">
<rect width="32.2936" height="37.0642" fill="white" transform="translate(29 26)"/>
</clipPath>
</defs>
</svg>
