<svg width="70" height="96" viewBox="0 0 70 96" fill="none" xmlns="http://www.w3.org/2000/svg">
<path d="M63.4425 52.4735L41.7241 89.9039C41.0091 91.0492 40.0174 91.996 38.8401 92.6577C37.6629 93.3186 36.3381 93.6732 34.9879 93.6877C33.7015 93.6698 32.442 93.3169 31.3336 92.6645C30.2251 92.0113 29.3063 91.0798 28.6675 89.9633L6.6097 51.8711C3.77015 46.8583 2.26843 41.1992 2.24904 35.4381C2.24904 26.7484 5.70099 18.4147 11.8455 12.2701C17.99 6.12565 26.3237 2.67371 35.0134 2.67371C43.7031 2.67371 52.0368 6.12565 58.1813 12.2701C64.3258 18.4147 67.7777 26.7484 67.7777 35.4381C67.8888 41.4028 66.3913 47.2874 63.4425 52.4735Z" fill="#FFA000"/>
<g filter="url(#filter0_b_1068_1889)">
<rect x="10.786" y="11.2094" width="48.2492" height="48.2492" rx="24.1246" fill="white" fill-opacity="0.9"/>
<g clip-path="url(#clip0_1068_1889)">
<path d="M46.2859 47.9343C46.2564 43.548 45.4811 39.1537 35.0183 39.1537C24.5556 39.1537 23.7723 43.5856 23.7508 47.9343" stroke="#141414" stroke-width="1.0731" stroke-linecap="round" stroke-linejoin="round"/>
<path d="M28.7559 32.2751C28.7559 33.9358 29.4156 35.5285 30.5899 36.7027C31.7641 37.877 33.3568 38.5367 35.0174 38.5367C36.6781 38.5367 38.2707 37.877 39.445 36.7027C40.6193 35.5285 41.279 33.9358 41.279 32.2751" stroke="#141414" stroke-width="1.0731" stroke-miterlimit="10"/>
<path d="M33.5603 27.9829V22.8347C33.5611 22.6086 33.6512 22.3921 33.811 22.2322C33.9708 22.0724 34.1874 21.9823 34.4135 21.9816H35.6207C35.8467 21.9823 36.0633 22.0724 36.2232 22.2322C36.383 22.3921 36.4731 22.6086 36.4738 22.8347V27.9829" stroke="#141414" stroke-width="1.0731" stroke-miterlimit="10" stroke-linecap="round"/>
<path d="M33.5612 23.2957C30.6504 23.9181 28.4801 26.3513 28.4801 29.2621C28.4863 29.3516 28.4684 29.4411 28.4283 29.5212C28.3882 29.6015 28.3273 29.6695 28.252 29.7182C28.252 29.7182 27.1253 30.2896 27.1253 32.2641H42.8489C42.8489 30.2896 41.7248 29.7182 41.7248 29.7182C41.6489 29.6701 41.5875 29.6022 41.5473 29.5219C41.5072 29.4415 41.4897 29.3517 41.4968 29.2621C41.4968 26.3513 39.3237 23.9181 36.4156 23.2957" stroke="#141414" stroke-width="1.0731" stroke-miterlimit="10"/>
</g>
</g>
<defs>
<filter id="filter0_b_1068_1889" x="0.0639896" y="0.487299" width="69.6933" height="69.6934" filterUnits="userSpaceOnUse" color-interpolation-filters="sRGB">
<feFlood flood-opacity="0" result="BackgroundImageFix"/>
<feGaussianBlur in="BackgroundImage" stdDeviation="5.36103"/>
<feComposite in2="SourceAlpha" operator="in" result="effect1_backgroundBlur_1068_1889"/>
<feBlend mode="normal" in="SourceGraphic" in2="effect1_backgroundBlur_1068_1889" result="shape"/>
</filter>
<clipPath id="clip0_1068_1889">
<rect width="23.6082" height="27.0958" fill="white" transform="translate(23.2139 21.4441)"/>
</clipPath>
</defs>
</svg>
