<svg width="120" height="120" viewBox="0 0 120 120" fill="none" xmlns="http://www.w3.org/2000/svg">
<g filter="url(#filter0_b_988_8102)">
<rect width="120" height="120" rx="60" fill="#F7D302"/>
<g filter="url(#filter1_b_988_8102)">
<rect x="15" y="16" width="90" height="90" rx="45" fill="white" fill-opacity="0.9"/>
<path d="M71.3741 43.0711C70.2217 37.2589 65.111 33 59.0984 33C52.1839 33 46.5721 38.6118 46.5721 45.5262C46.5721 46.378 46.6724 47.2799 46.8227 48.0816C40.8101 48.1818 36 53.0921 36 59.1047C36 65.1674 40.9604 70.1278 47.0231 70.1278C47.1734 70.1278 47.2736 70.1278 47.4239 70.1278C47.474 70.1278 47.5241 70.1278 47.5241 70.1278H48.5262L72.6768 70.0276C72.7269 70.0276 72.7269 70.0276 72.7771 70.0276C79.5913 69.2259 84.702 63.4137 84.702 56.5994C84.702 49.234 78.7395 43.1713 71.3741 43.0711ZM72.6267 68.1236L48.5262 68.2238H47.6745C47.6244 68.2238 47.5241 68.2238 47.474 68.2238C47.3237 68.2238 47.1734 68.2238 47.0231 68.2238C42.0126 68.2238 37.904 64.1152 37.904 59.1047C37.904 54.0942 42.0126 49.9856 47.0231 49.9856C47.3237 49.9856 47.6745 49.9856 47.9751 50.0357C48.2757 50.0858 48.6265 49.9355 48.8269 49.685C49.0273 49.4344 49.0774 49.0837 48.9772 48.7831C48.6265 47.7309 48.4761 46.6286 48.4761 45.4761C48.4761 39.6139 53.2361 34.8539 59.0984 34.8539C64.4095 34.8539 68.9691 38.8122 69.6204 44.1233C69.6705 44.6244 70.1215 44.9751 70.6225 44.9751C70.823 44.9751 70.9733 44.9751 71.1737 44.9751C77.5871 44.9751 82.798 50.186 82.798 56.5994C82.798 62.4617 78.4389 67.4221 72.6267 68.1236Z" fill="#141414"/>
<path d="M48.4758 73.6359C47.9747 73.4855 47.4236 73.7361 47.2733 74.2371L44.267 82.8051C44.1166 83.3061 44.3672 83.8573 44.8682 84.0076C44.9684 84.0577 45.0686 84.0577 45.1688 84.0577C45.5697 84.0577 45.9204 83.8072 46.0707 83.4063L49.077 74.8384C49.2775 74.3373 48.9768 73.7862 48.4758 73.6359Z" fill="#141414"/>
<path d="M54.4883 72.0334C53.9872 71.8831 53.4361 72.1336 53.2858 72.6347L48.2753 86.9146C48.1249 87.4157 48.3755 87.9668 48.8765 88.1171C48.9767 88.1672 49.0769 88.1672 49.1771 88.1672C49.578 88.1672 49.9287 87.9167 50.079 87.5159L55.0895 73.236C55.2398 72.7349 54.9893 72.2339 54.4883 72.0334Z" fill="#141414"/>
<path d="M70.7222 72.0334C70.2212 71.8831 69.67 72.1336 69.5197 72.6347L64.0082 88.3677C63.8579 88.8687 64.1084 89.4199 64.6094 89.5702C64.7096 89.6203 64.8098 89.6203 64.9101 89.6203C65.3109 89.6203 65.6616 89.3698 65.8119 88.9689L71.3235 73.236C71.4738 72.7349 71.2233 72.2339 70.7222 72.0334Z" fill="#141414"/>
<path d="M59.3493 73.6359C58.8483 73.4855 58.2971 73.7361 58.1468 74.2371L55.1405 82.8051C54.9902 83.3061 55.2407 83.8573 55.7418 84.0076C55.842 84.0577 55.9422 84.0577 56.0424 84.0577C56.4432 84.0577 56.794 83.8072 56.9443 83.4063L59.9506 74.8384C60.1009 74.3373 59.8504 73.7862 59.3493 73.6359Z" fill="#141414"/>
<path d="M64.9603 73.0338C64.4592 72.8835 63.9081 73.134 63.7577 73.6351L59.9999 84.3576C59.8496 84.8586 60.1001 85.4098 60.6011 85.5601C60.7013 85.6102 60.8015 85.6102 60.9018 85.6102C61.3026 85.6102 61.6533 85.3597 61.8036 84.9588L65.5615 74.2364C65.7118 73.7353 65.4613 73.1841 64.9603 73.0338Z" fill="#141414"/>
<path d="M74.9313 75.3386C74.4302 75.1883 73.8791 75.4388 73.7287 75.9399L71.2235 83.1049C71.0732 83.6059 71.3237 84.1571 71.8248 84.3074C71.925 84.3575 72.0252 84.3575 72.1254 84.3575C72.5262 84.3575 72.877 84.107 73.0273 83.7061L75.5325 76.5411C75.6828 76.0401 75.3822 75.4889 74.9313 75.3386Z" fill="#141414"/>
</g>
</g>
<defs>
<filter id="filter0_b_988_8102" x="-21.7778" y="-21.7778" width="163.556" height="163.556" filterUnits="userSpaceOnUse" color-interpolation-filters="sRGB">
<feFlood flood-opacity="0" result="BackgroundImageFix"/>
<feGaussianBlur in="BackgroundImage" stdDeviation="10.8889"/>
<feComposite in2="SourceAlpha" operator="in" result="effect1_backgroundBlur_988_8102"/>
<feBlend mode="normal" in="SourceGraphic" in2="effect1_backgroundBlur_988_8102" result="shape"/>
</filter>
<filter id="filter1_b_988_8102" x="-5" y="-4" width="130" height="130" filterUnits="userSpaceOnUse" color-interpolation-filters="sRGB">
<feFlood flood-opacity="0" result="BackgroundImageFix"/>
<feGaussianBlur in="BackgroundImage" stdDeviation="10"/>
<feComposite in2="SourceAlpha" operator="in" result="effect1_backgroundBlur_988_8102"/>
<feBlend mode="normal" in="SourceGraphic" in2="effect1_backgroundBlur_988_8102" result="shape"/>
</filter>
</defs>
</svg>
